<?xml version="1.0" encoding="utf-8"?>
<!-- Generator: Adobe Illustrator 25.0.0, SVG Export Plug-In . SVG Version: 6.00 Build 0)  -->
<svg version="1.1" id="Layer_1" xmlns="http://www.w3.org/2000/svg" xmlns:xlink="http://www.w3.org/1999/xlink" x="0px" y="0px"
	 viewBox="0 0 556.2 199.1" style="enable-background:new 0 0 556.2 199.1;" xml:space="preserve">
<style type="text/css">

</style>
<g>
	<g>
		<path class="st77" d="M31.4,109.7c-4.1,0-8.1-0.5-12-1.6c-3.9-1.1-7.5-2.6-10.8-4.6c-3.3-1.9-6.1-4.3-8.5-7.1l11.7-11.8
			c2.5,2.8,5.4,4.9,8.7,6.3c3.3,1.4,6.9,2.1,10.9,2.1c3.2,0,5.6-0.4,7.2-1.3s2.5-2.2,2.5-4c0-2-0.9-3.5-2.6-4.6
			c-1.7-1.1-4-2-6.8-2.8c-2.8-0.7-5.7-1.6-8.7-2.5c-3-0.9-6-2.2-8.7-3.7c-2.8-1.5-5.1-3.7-6.8-6.4c-1.7-2.7-2.6-6.3-2.6-10.7
			c0-4.6,1.1-8.6,3.4-12c2.2-3.4,5.5-6,9.6-7.9c4.2-1.9,9.1-2.8,14.8-2.8c6,0,11.4,1,16.2,3.1c4.8,2.1,8.8,5.2,12,9.4L48.9,58.4
			c-2.2-2.7-4.7-4.6-7.4-5.8c-2.7-1.2-5.7-1.8-8.9-1.8c-2.9,0-5.1,0.4-6.6,1.3c-1.5,0.9-2.3,2.1-2.3,3.7c0,1.8,0.9,3.2,2.6,4.2
			c1.7,1,4,1.9,6.8,2.6c2.8,0.7,5.7,1.6,8.7,2.5c3,0.9,5.9,2.3,8.7,4c2.7,1.7,5,3.9,6.7,6.7c1.7,2.8,2.6,6.4,2.6,10.8
			c0,7.1-2.5,12.7-7.6,16.8C47.1,107.6,40.1,109.7,31.4,109.7z"/>
		<path class="st77" d="M66.6,53V35.9H120V53H66.6z M83.5,108V5.8h19.6V108H83.5z"/>
		<path class="st77" d="M161.8,109.5c-6.4,0-12-1.3-17-4s-8.8-6.4-11.6-11.2c-2.8-4.8-4.2-10.3-4.2-16.6V35.9h19.7v41.4
			c0,3,0.5,5.6,1.5,7.7c1,2.1,2.5,3.8,4.5,4.9c2,1.1,4.3,1.6,7,1.6c4.1,0,7.3-1.2,9.6-3.7c2.3-2.5,3.4-6,3.4-10.5V35.9h19.6v41.8
			c0,6.4-1.4,12-4.1,16.7c-2.7,4.8-6.6,8.5-11.5,11.1C173.8,108.2,168.2,109.5,161.8,109.5z"/>
		<path class="st77" d="M240.4,109.5c-6.7,0-12.7-1.6-17.9-4.9c-5.3-3.3-9.4-7.8-12.5-13.4c-3-5.7-4.6-12.1-4.6-19.1
			c0-7.2,1.5-13.6,4.6-19.3c3-5.7,7.2-10.2,12.4-13.4s11.2-4.9,18-4.9c5.2,0,9.8,1,14,3.1c4.1,2.1,7.5,5,10,8.7s3.9,7.9,4.1,12.6
			v25.7c-0.2,4.7-1.5,8.9-4,12.7c-2.5,3.8-5.8,6.8-10,9S245.6,109.5,240.4,109.5z M243.7,91.4c3.7,0,6.9-0.8,9.6-2.5
			c2.7-1.6,4.9-3.9,6.4-6.9c1.5-2.9,2.3-6.3,2.3-10.2c0-3.8-0.8-7.1-2.3-10.1c-1.5-2.9-3.7-5.2-6.4-6.9c-2.7-1.6-5.9-2.5-9.5-2.5
			c-3.7,0-6.9,0.8-9.6,2.5c-2.7,1.7-4.9,4-6.4,6.9c-1.5,2.9-2.3,6.2-2.3,10c0,3.9,0.8,7.3,2.3,10.2c1.5,2.9,3.7,5.2,6.5,6.9
			C237.1,90.6,240.2,91.4,243.7,91.4z M280.4,108H261V88.6l3.1-17.6l-3.3-17.3V0h19.6V108z"/>
		<path class="st77" d="M305.6,24.2c-3.2,0-5.8-1.1-7.9-3.2c-2.1-2.1-3.1-4.8-3.1-8c0-3.1,1-5.7,3.1-7.9c2.1-2.2,4.7-3.3,7.9-3.3
			c3.3,0,6,1.1,8,3.3c2,2.2,3.1,4.8,3.1,7.9c0,3.2-1,5.9-3.1,8C311.6,23.1,308.9,24.2,305.6,24.2z M295.8,108V35.9h19.7V108H295.8z"
			/>
	</g>
	<g>
		<path class="st77" d="M412.5,197.6V37.2h19.6v160.4H412.5z"/>
		<path class="st77" d="M459.3,113.8c-3.2,0-5.8-1.1-7.9-3.2c-2.1-2.1-3.1-4.8-3.1-8c0-3.1,1-5.7,3.1-7.9c2.1-2.2,4.7-3.3,7.9-3.3
			c3.3,0,6,1.1,8,3.3c2,2.2,3.1,4.8,3.1,7.9c0,3.2-1,5.9-3.1,8C465.2,112.8,462.6,113.8,459.3,113.8z M449.4,197.6v-72.2h19.7v72.2
			H449.4z"/>
		<path class="st77" d="M521,199.1c-7.6,0-14.3-1.6-20.2-4.9c-5.9-3.2-10.5-7.7-14-13.4c-3.4-5.7-5.2-12.2-5.2-19.4
			c0-7.2,1.7-13.6,5-19.2c3.3-5.6,7.9-10.1,13.7-13.4c5.8-3.3,12.2-5,19.3-5c7,0,13.1,1.6,18.5,4.7c5.3,3.1,9.5,7.4,12.6,12.8
			c3,5.4,4.6,11.6,4.6,18.5c0,1.3-0.1,2.6-0.2,4s-0.4,2.9-0.8,4.6l-60.7,0.1v-14.6l51.5-0.1l-7.9,6.1c-0.2-4.3-1-7.9-2.3-10.8
			c-1.3-2.9-3.3-5.1-5.8-6.6c-2.5-1.5-5.7-2.3-9.3-2.3c-3.9,0-7.3,0.9-10.2,2.6c-2.9,1.7-5.1,4.2-6.6,7.3c-1.5,3.1-2.3,6.8-2.3,11.1
			c0,4.4,0.8,8.2,2.5,11.4c1.6,3.2,4,5.7,7.1,7.5c3.1,1.7,6.7,2.6,10.8,2.6c3.7,0,7-0.6,10-1.9c3-1.2,5.6-3.1,7.8-5.6l11.5,11.5
			c-3.5,4.1-7.7,7.2-12.8,9.3C532.3,198.1,526.9,199.1,521,199.1z"/>
	</g>
</g>
<path class="st77" d="M396.3,55.8c-3.1-5.7-7.2-10.3-12.4-13.6c-5.2-3.3-11.1-5-17.6-5c-6.5,0-12.4,1.7-17.6,5
	c-5.2,3.3-9.3,7.9-12.4,13.6c-2.9,5.5-4.4,11.6-4.5,18.3h0v87.5h0c0.1,6.7,1.6,12.8,4.6,18.3c3.1,5.7,7.2,10.3,12.4,13.6
	c5.2,3.3,11.1,5,17.6,5c6.5,0,12.4-1.7,17.6-5c5.2-3.3,9.3-7.9,12.4-13.6c3-5.7,4.5-12,4.5-19V74.9
	C400.9,67.9,399.4,61.5,396.3,55.8z M383,74.9v85.9c0,3.8-0.7,7.1-2.1,10.1c-1.4,2.9-3.3,5.2-5.9,6.9s-5.5,2.5-8.8,2.5
	c-3.2,0-6.1-0.8-8.6-2.5c-2.5-1.6-4.5-3.9-5.9-6.9c-1.4-2.9-2.1-6.3-2.1-10.1V74.9c0-3.8,0.7-7.1,2.1-10.1c1.4-2.9,3.3-5.2,5.9-6.9
	s5.5-2.5,8.8-2.5c3.2,0,6.1,0.8,8.6,2.5c2.5,1.6,4.5,3.9,5.9,6.9C382.3,67.7,383,71.1,383,74.9L383,74.9z"/>
<path class="st77" d="M281,158.8c0-9.4,6.4-15.6,14.2-15.6h20.3v-17.7h-22c-17.3,0-31.4,14.5-31.4,32.4v39.7H281V158.8z"/>
</svg>
